<svg xmlns="http://www.w3.org/2000/svg" width="580" height="212" viewBox="0 0 290 106" preserveAspectRatio="xMidYMid meet" style="shape-rendering:geometricPrecision;text-rendering:geometricPrecision;image-rendering:optimizeQuality;fill-rule:evenodd;clip-rule:evenodd">
  <path style="opacity:1" fill="none" d="M-.5-.5h290v106H-.5V-.5z"/>
  <path style="opacity:1" fill="#16a34a" d="M82.5 95.5h-15c.328-11.18-.005-22.18-1-33-1.923-13.82-9.923-19.654-24-17.5-13.584 7.094-16.418 17.26-8.5 30.5 2.1 2.967 4.934 4.8 8.5 5.5a86.7 86.7 0 0 1 13 1.5 83.608 83.608 0 0 1 5 11.5c-14.529 6.536-27.362 4.036-38.5-7.5C9.044 67.772 10.877 50.606 27.5 35c8.264-5.172 17.264-6.839 27-5 4.295.898 8.128 2.731 11.5 5.5.5-10.328.666-20.661.5-31h16v91zm127-91h16c-.166 10.339 0 20.672.5 31 7.938-5.685 16.771-7.519 26.5-5.5 19.253 6.663 27.753 20.163 25.5 40.5-7.554 22.863-23.054 31.196-46.5 25a51.507 51.507 0 0 1 5-13c8.925 1.625 16.425-1.042 22.5-8 6.615-11.88 4.115-21.38-7.5-28.5-11.431-3.525-19.931-.025-25.5 10.5a760.307 760.307 0 0 0-.5 39h-16v-91zm-51 91h-15c.328-11.512-.005-22.846-1-34-1.468-10.63-7.634-16.297-18.5-17-13.417 1.825-19.417 9.491-18 23 4.244 11.882 12.744 16.715 25.5 14.5a65.746 65.746 0 0 1 5 13.5c-19.043 5.627-33.543-.04-43.5-17-7.658-20.896-1.825-36.73 17.5-47.5 10.817-2.826 21.151-1.66 31 3.5.929-1.189 1.262-2.522 1-4h16v65zm38-66h5v15c-8.433.803-14.266 5.136-17.5 13a721.826 721.826 0 0 0-.5 38h-16v-65h16c-.16 1.7.006 3.366.5 5 3.643-3.156 7.81-5.156 12.5-6z"/>
</svg>
