<?xml version="1.0" encoding="UTF-8"?>
<!DOCTYPE svg PUBLIC "-//W3C//DTD SVG 1.1//EN" "http://www.w3.org/Graphics/SVG/1.1/DTD/svg11.dtd">
<svg xmlns="http://www.w3.org/2000/svg" version="1.1" width="157px" height="170px" style="shape-rendering:geometricPrecision; text-rendering:geometricPrecision; image-rendering:optimizeQuality; fill-rule:evenodd; clip-rule:evenodd" xmlns:xlink="http://www.w3.org/1999/xlink">
<g><path style="opacity:1" fill="#fdfefd" d="M -0.5,-0.5 C 51.8333,-0.5 104.167,-0.5 156.5,-0.5C 156.5,56.1667 156.5,112.833 156.5,169.5C 104.167,169.5 51.8333,169.5 -0.5,169.5C -0.5,112.833 -0.5,56.1667 -0.5,-0.5 Z"/></g>
<g><path style="opacity:1" fill="#f5fef4" d="M 91.5,2.5 C 83.9809,2.17503 76.6476,2.50837 69.5,3.5C 69.1667,3.5 68.8333,3.5 68.5,3.5C 63.0616,3.9878 57.7282,4.9878 52.5,6.5C 55.4628,4.55411 58.4628,2.55411 61.5,0.5C 62.9495,1.27979 64.4495,1.94646 66,2.5C 74.6517,1.22592 83.1517,1.22592 91.5,2.5 Z"/></g>
<g><path style="opacity:1" fill="#d8fcd4" d="M 69.5,3.5 C 76.6476,2.50837 83.9809,2.17503 91.5,2.5C 93.5313,2.9724 95.1979,3.9724 96.5,5.5C 96.1667,5.5 95.8333,5.5 95.5,5.5C 92.8728,4.90843 90.2062,4.5751 87.5,4.5C 81.69,3.51045 75.69,3.17711 69.5,3.5 Z"/></g>
<g><path style="opacity:1" fill="#4aa941" d="M 87.5,4.5 C 90.2062,4.5751 92.8728,4.90843 95.5,5.5C 95.5,5.83333 95.5,6.16667 95.5,6.5C 93.5,6.5 91.5,6.5 89.5,6.5C 88.5,6.5 87.5,6.5 86.5,6.5C 80.3167,5.32445 73.9834,5.32445 67.5,6.5C 67.9175,5.77842 68.5842,5.27842 69.5,5C 75.4908,4.50051 81.4908,4.33385 87.5,4.5 Z"/></g>
<g><path style="opacity:1" fill="#dbfcd9" d="M 68.5,3.5 C 61.6879,5.23065 55.0212,7.56398 48.5,10.5C 49.1667,8.5 50.5,7.16667 52.5,6.5C 57.7282,4.9878 63.0616,3.9878 68.5,3.5 Z"/></g>
<g><path style="opacity:1" fill="#61af58" d="M 95.5,6.5 C 95.5,6.16667 95.5,5.83333 95.5,5.5C 95.8333,5.5 96.1667,5.5 96.5,5.5C 96.8333,5.5 97.1667,5.5 97.5,5.5C 104.102,8.13647 110.102,11.8031 115.5,16.5C 109.076,12.7571 102.409,9.42377 95.5,6.5 Z"/></g>
<g><path style="opacity:1" fill="#3ab52d" d="M 86.5,6.5 C 79.9577,5.98874 73.6244,6.82207 67.5,9C 72.5,9.33333 77.5,9.66667 82.5,10C 82.9574,10.414 83.2907,10.914 83.5,11.5C 77.5501,11.7677 71.5501,11.9344 65.5,12C 64.5494,12.7175 64.3828,13.5509 65,14.5C 74.4403,15.1547 83.9403,15.8214 93.5,16.5C 92.0977,17.8425 92.4311,18.6758 94.5,19C 97.2263,19.1816 99.8929,19.6816 102.5,20.5C 101.624,21.2508 100.624,21.7508 99.5,22C 100.833,22.3333 102.167,22.6667 103.5,23C 104.252,23.6708 104.586,24.5041 104.5,25.5C 99.5093,23.1604 94.5093,21.1604 89.5,19.5C 89.0825,18.7784 88.4158,18.2784 87.5,18C 78.4677,17.335 69.4677,17.6684 60.5,19C 58.3825,20.0491 56.7158,21.5491 55.5,23.5C 50.8502,24.4911 47.8502,27.1578 46.5,31.5C 43.9561,32.4679 41.7895,34.1345 40,36.5C 37.404,40.4546 35.904,44.7879 35.5,49.5C 34.1001,50.0998 33.1001,51.0998 32.5,52.5C 31.9677,46.981 31.1344,41.6476 30,36.5C 31,37.8333 32,39.1667 33,40.5C 39.0933,35.5782 44.26,29.9115 48.5,23.5C 47.1266,23.3433 45.7932,23.51 44.5,24C 42.6784,26.7908 40.5117,29.2908 38,31.5C 36.3333,30.5 35,29.1667 34,27.5C 33.6667,29.8333 33.3333,32.1667 33,34.5C 30.0374,35.0256 27.5374,36.359 25.5,38.5C 25.5,37.1667 25.5,35.8333 25.5,34.5C 28.984,30.8664 31.984,26.8664 34.5,22.5C 34.5,21.8333 34.8333,21.5 35.5,21.5C 41.1535,16.7082 47.4869,12.8749 54.5,10C 58.84,8.71773 63.1734,7.55106 67.5,6.5C 73.9834,5.32445 80.3167,5.32445 86.5,6.5 Z"/></g>
<g><path style="opacity:1" fill="#d9fbd5" d="M 97.5,5.5 C 100.914,5.73583 104.247,6.4025 107.5,7.5C 112.167,11.3274 117.001,14.9941 122,18.5C 123.927,21.8063 126.093,24.973 128.5,28C 130.874,32.6239 132.541,37.4573 133.5,42.5C 131.769,38.705 129.769,35.0383 127.5,31.5C 126.66,29.1475 125.326,27.1475 123.5,25.5C 122.25,23.0676 120.75,20.7343 119,18.5C 117.887,17.695 116.721,17.0283 115.5,16.5C 110.102,11.8031 104.102,8.13647 97.5,5.5 Z"/></g>
<g><path style="opacity:1" fill="#57ab4d" d="M 68.5,3.5 C 68.8333,3.5 69.1667,3.5 69.5,3.5C 75.69,3.17711 81.69,3.51045 87.5,4.5C 81.4908,4.33385 75.4908,4.50051 69.5,5C 68.5842,5.27842 67.9175,5.77842 67.5,6.5C 63.1734,7.55106 58.84,8.71773 54.5,10C 47.4869,12.8749 41.1535,16.7082 35.5,21.5C 38.5992,17.4657 42.2659,14.1324 46.5,11.5C 47.1667,11.1667 47.8333,10.8333 48.5,10.5C 55.0212,7.56398 61.6879,5.23065 68.5,3.5 Z"/></g>
<g><path style="opacity:1" fill="#46ac3b" d="M 89.5,19.5 C 81.9809,19.175 74.6476,19.5084 67.5,20.5C 67.1667,20.5 66.8333,20.5 66.5,20.5C 63.0825,20.023 60.4159,21.023 58.5,23.5C 57.8333,23.5 57.1667,23.5 56.5,23.5C 56.1667,23.5 55.8333,23.5 55.5,23.5C 56.7158,21.5491 58.3825,20.0491 60.5,19C 69.4677,17.6684 78.4677,17.335 87.5,18C 88.4158,18.2784 89.0825,18.7784 89.5,19.5 Z"/></g>
<g><path style="opacity:1" fill="#d5fdd0" d="M 66.5,20.5 C 66.8333,20.5 67.1667,20.5 67.5,20.5C 74.6866,20.1755 81.6866,20.5088 88.5,21.5C 80.1381,21.3348 71.8048,21.6682 63.5,22.5C 64.5,21.8333 65.5,21.1667 66.5,20.5 Z"/></g>
<g><path style="opacity:1" fill="#5caa54" d="M 115.5,16.5 C 116.721,17.0283 117.887,17.695 119,18.5C 120.75,20.7343 122.25,23.0676 123.5,25.5C 122.833,25.5 122.167,25.5 121.5,25.5C 119.735,22.2911 117.735,19.2911 115.5,16.5 Z"/></g>
<g><path style="opacity:1" fill="#61ad5a" d="M 66.5,20.5 C 65.5,21.1667 64.5,21.8333 63.5,22.5C 61.7085,22.366 60.0418,22.6993 58.5,23.5C 60.4159,21.023 63.0825,20.023 66.5,20.5 Z"/></g>
<g><path style="opacity:1" fill="#5fb054" d="M 67.5,20.5 C 74.6476,19.5084 81.9809,19.175 89.5,19.5C 94.5093,21.1604 99.5093,23.1604 104.5,25.5C 106.787,29.6217 109.954,32.955 114,35.5C 114.495,37.4727 114.662,39.4727 114.5,41.5C 113.728,40.3065 112.728,39.3065 111.5,38.5C 106.562,29.1924 98.8952,23.5257 88.5,21.5C 81.6866,20.5088 74.6866,20.1755 67.5,20.5 Z"/></g>
<g><path style="opacity:1" fill="#3db331" d="M 89.5,6.5 C 91.5,6.5 93.5,6.5 95.5,6.5C 102.409,9.42377 109.076,12.7571 115.5,16.5C 117.735,19.2911 119.735,22.2911 121.5,25.5C 119.473,25.6621 117.473,25.4955 115.5,25C 114.177,22.1203 112.677,19.287 111,16.5C 108.113,15.4522 105.613,13.7855 103.5,11.5C 100.163,12.1093 99.8301,13.276 102.5,15C 93.7038,16.7203 92.7038,15.2203 99.5,10.5C 96.7802,8.88932 93.7802,8.05598 90.5,8C 89.944,7.61742 89.6107,7.11742 89.5,6.5 Z"/></g>
<g><path style="opacity:1" fill="#f1feef" d="M 88.5,21.5 C 88.5,21.8333 88.5,22.1667 88.5,22.5C 74.5381,20.9516 61.8715,23.9516 50.5,31.5C 52.1139,29.5441 53.7806,27.5441 55.5,25.5C 58.4432,25.0198 61.1098,24.0198 63.5,22.5C 71.8048,21.6682 80.1381,21.3348 88.5,21.5 Z"/></g>
<g><path style="opacity:1" fill="#c9f6c3" d="M 63.5,22.5 C 61.1098,24.0198 58.4432,25.0198 55.5,25.5C 55.8333,24.8333 56.1667,24.1667 56.5,23.5C 57.1667,23.5 57.8333,23.5 58.5,23.5C 60.0418,22.6993 61.7085,22.366 63.5,22.5 Z"/></g>
<g><path style="opacity:1" fill="#60af54" d="M 55.5,23.5 C 55.8333,23.5 56.1667,23.5 56.5,23.5C 56.1667,24.1667 55.8333,24.8333 55.5,25.5C 52.0127,26.7454 49.0127,28.7454 46.5,31.5C 47.8502,27.1578 50.8502,24.4911 55.5,23.5 Z"/></g>
<g><path style="opacity:1" fill="#5da953" d="M 123.5,25.5 C 125.326,27.1475 126.66,29.1475 127.5,31.5C 125.178,30.1979 123.845,28.1979 123.5,25.5 Z"/></g>
<g><path style="opacity:1" fill="#d6fad3" d="M 46.5,11.5 C 42.2659,14.1324 38.5992,17.4657 35.5,21.5C 34.8333,21.5 34.5,21.8333 34.5,22.5C 30.5293,25.7759 27.5293,29.7759 25.5,34.5C 23.6439,37.4086 21.9773,40.4086 20.5,43.5C 23.9763,28.5124 32.643,17.8457 46.5,11.5 Z"/></g>
<g><path style="opacity:1" fill="#62ae59" d="M 34.5,22.5 C 31.984,26.8664 28.984,30.8664 25.5,34.5C 27.5293,29.7759 30.5293,25.7759 34.5,22.5 Z"/></g>
<g><path style="opacity:1" fill="#d9fcd4" d="M 88.5,22.5 C 88.5,22.1667 88.5,21.8333 88.5,21.5C 98.8952,23.5257 106.562,29.1924 111.5,38.5C 105.486,30.9765 97.8192,25.6432 88.5,22.5 Z"/></g>
<g><path style="opacity:1" fill="#3eb232" d="M 121.5,25.5 C 122.167,25.5 122.833,25.5 123.5,25.5C 123.845,28.1979 125.178,30.1979 127.5,31.5C 128.136,35.7814 129.636,39.7814 132,43.5C 132.584,48.5847 133.584,53.5847 135,58.5C 135.622,74.8697 135.122,91.203 133.5,107.5C 132.833,107.833 132.167,108.167 131.5,108.5C 134.145,87.5133 133.978,66.5133 131,45.5C 129.333,42.5 127.667,39.5 126,36.5C 124.387,37.6223 123.22,37.1223 122.5,35C 123.022,34.4387 123.355,33.772 123.5,33C 122.751,30.5034 122.084,28.0034 121.5,25.5 Z"/></g>
<g><path style="opacity:1" fill="#37b72a" d="M 32.5,52.5 C 32.5,53.1667 32.5,53.8333 32.5,54.5C 30.6479,60.9249 29.6479,67.7582 29.5,75C 30.3903,78.2246 30.3903,81.3913 29.5,84.5C 30.1015,88.3776 30.9348,88.3776 32,84.5C 32.4838,86.9129 32.1505,89.2462 31,91.5C 28.626,89.0604 26.4593,89.3937 24.5,92.5C 23.5113,90.4138 22.178,88.7471 20.5,87.5C 19.675,77.8573 19.3417,68.1907 19.5,58.5C 19.3379,56.4727 19.5045,54.4727 20,52.5C 21.8972,47.7926 23.7305,43.1259 25.5,38.5C 27.5374,36.359 30.0374,35.0256 33,34.5C 33.3333,32.1667 33.6667,29.8333 34,27.5C 35,29.1667 36.3333,30.5 38,31.5C 40.5117,29.2908 42.6784,26.7908 44.5,24C 45.7932,23.51 47.1266,23.3433 48.5,23.5C 44.26,29.9115 39.0933,35.5782 33,40.5C 32,39.1667 31,37.8333 30,36.5C 31.1344,41.6476 31.9677,46.981 32.5,52.5 Z"/></g>
<g><path style="opacity:1" fill="#dafdd6" d="M 55.5,25.5 C 53.7806,27.5441 52.1139,29.5441 50.5,31.5C 48.2254,32.1112 46.5588,33.4446 45.5,35.5C 43.8559,38.7335 41.5225,41.4002 38.5,43.5C 40.6602,39.1846 43.3269,35.1846 46.5,31.5C 49.0127,28.7454 52.0127,26.7454 55.5,25.5 Z"/></g>
<g><path style="opacity:1" fill="#57ab4c" d="M 46.5,31.5 C 43.3269,35.1846 40.6602,39.1846 38.5,43.5C 37.5,45.5 36.5,47.5 35.5,49.5C 35.904,44.7879 37.404,40.4546 40,36.5C 41.7895,34.1345 43.9561,32.4679 46.5,31.5 Z"/></g>
<g><path style="opacity:1" fill="#6da367" d="M 68.5,40.5 C 70.2624,41.2623 71.2624,42.5956 71.5,44.5C 70.2921,43.7659 68.9587,43.4326 67.5,43.5C 67.5569,42.391 67.8902,41.391 68.5,40.5 Z"/></g>
<g><path style="opacity:1" fill="#e0fddb" d="M 68.5,40.5 C 67.8902,41.391 67.5569,42.391 67.5,43.5C 67.2964,45.6854 66.6298,47.6854 65.5,49.5C 64.5,49.5 63.5,49.5 62.5,49.5C 61.5,46.5 59.5,44.5 56.5,43.5C 56.5,43.1667 56.5,42.8333 56.5,42.5C 58.9468,42.615 60.9468,43.615 62.5,45.5C 63.1174,45.6107 63.6174,45.944 64,46.5C 65.0086,44.9751 65.5086,43.3084 65.5,41.5C 66.391,40.8902 67.391,40.5569 68.5,40.5 Z"/></g>
<g><path style="opacity:1" fill="#dffedb" d="M 133.5,42.5 C 134.687,44.0725 135.687,45.7392 136.5,47.5C 137.114,51.1352 137.448,54.8019 137.5,58.5C 137.167,58.5 136.833,58.5 136.5,58.5C 135.818,53.1067 134.818,47.7734 133.5,42.5 Z"/></g>
<g><path style="opacity:1" fill="#37b72b" d="M 86.5,6.5 C 87.5,6.5 88.5,6.5 89.5,6.5C 89.6107,7.11742 89.944,7.61742 90.5,8C 93.7802,8.05598 96.7802,8.88932 99.5,10.5C 92.7038,15.2203 93.7038,16.7203 102.5,15C 99.8301,13.276 100.163,12.1093 103.5,11.5C 105.613,13.7855 108.113,15.4522 111,16.5C 112.677,19.287 114.177,22.1203 115.5,25C 117.473,25.4955 119.473,25.6621 121.5,25.5C 122.084,28.0034 122.751,30.5034 123.5,33C 123.355,33.772 123.022,34.4387 122.5,35C 123.22,37.1223 124.387,37.6223 126,36.5C 127.667,39.5 129.333,42.5 131,45.5C 133.978,66.5133 134.145,87.5133 131.5,108.5C 131.657,109.873 131.49,111.207 131,112.5C 129.488,113.257 128.154,114.257 127,115.5C 125.889,121.221 124.723,126.888 123.5,132.5C 123.5,132.833 123.5,133.167 123.5,133.5C 122.325,133.281 121.325,133.614 120.5,134.5C 118.571,140.005 115.904,145.005 112.5,149.5C 107.698,153.435 102.698,157.102 97.5,160.5C 89.7453,163.086 81.7453,164.086 73.5,163.5C 71.9582,162.699 70.2915,162.366 68.5,162.5C 60.3394,154.658 56.6728,144.991 57.5,133.5C 57.5,105.833 57.5,78.1667 57.5,50.5C 60.0241,50.4287 62.0241,51.4287 63.5,53.5C 65.1667,52.1667 66.8333,50.8333 68.5,49.5C 69.1667,78.9972 69.8333,108.331 70.5,137.5C 70.8333,137.5 71.1667,137.5 71.5,137.5C 71.5254,140.96 72.1921,144.294 73.5,147.5C 75.261,148.035 76.5943,149.035 77.5,150.5C 81.2191,152.298 85.2191,152.798 89.5,152C 100.6,145.892 108.6,136.892 113.5,125C 114.996,123.669 116.329,122.169 117.5,120.5C 116.978,119.393 116.645,118.226 116.5,117C 117.692,113.593 118.359,110.093 118.5,106.5C 118.5,105.833 118.5,105.167 118.5,104.5C 119.891,102.04 121.058,99.3738 122,96.5C 122.827,83.6599 122.66,70.9933 121.5,58.5C 121.048,55.797 120.381,53.1303 119.5,50.5C 117.995,47.2251 116.329,44.2251 114.5,41.5C 114.662,39.4727 114.495,37.4727 114,35.5C 109.954,32.955 106.787,29.6217 104.5,25.5C 104.586,24.5041 104.252,23.6708 103.5,23C 102.167,22.6667 100.833,22.3333 99.5,22C 100.624,21.7508 101.624,21.2508 102.5,20.5C 99.8929,19.6816 97.2263,19.1816 94.5,19C 92.4311,18.6758 92.0977,17.8425 93.5,16.5C 83.9403,15.8214 74.4403,15.1547 65,14.5C 64.3828,13.5509 64.5494,12.7175 65.5,12C 71.5501,11.9344 77.5501,11.7677 83.5,11.5C 83.2907,10.914 82.9574,10.414 82.5,10C 77.5,9.66667 72.5,9.33333 67.5,9C 73.6244,6.82207 79.9577,5.98874 86.5,6.5 Z"/></g>
<g><path style="opacity:1" fill="#5aaa51" d="M 25.5,34.5 C 25.5,35.8333 25.5,37.1667 25.5,38.5C 23.7305,43.1259 21.8972,47.7926 20,52.5C 19.5045,54.4727 19.3379,56.4727 19.5,58.5C 18.5076,66.3159 18.1743,74.3159 18.5,82.5C 18.1667,82.5 17.8333,82.5 17.5,82.5C 17.5,81.5 17.5,80.5 17.5,79.5C 16.7989,67.3194 17.7989,55.3194 20.5,43.5C 21.9773,40.4086 23.6439,37.4086 25.5,34.5 Z"/></g>
<g><path style="opacity:1" fill="#eefeed" d="M 62.5,45.5 C 60.9468,43.615 58.9468,42.615 56.5,42.5C 54.5077,72.4816 53.841,102.815 54.5,133.5C 54.4126,138.537 54.746,143.537 55.5,148.5C 53.8906,145.851 53.0572,142.851 53,139.5C 52.8263,106.458 52.3263,73.4582 51.5,40.5C 54.1481,39.4732 57.1481,39.8066 60.5,41.5C 61.6302,42.6223 62.2969,43.9557 62.5,45.5 Z"/></g>
<g><path style="opacity:1" fill="#4fa645" d="M 67.5,43.5 C 68.9587,43.4326 70.2921,43.7659 71.5,44.5C 71.5,44.8333 71.5,45.1667 71.5,45.5C 71.5,76.1667 71.5,106.833 71.5,137.5C 71.1667,137.5 70.8333,137.5 70.5,137.5C 70.8332,107.159 70.4998,76.826 69.5,46.5C 68.1482,47.5244 66.8149,48.5244 65.5,49.5C 66.6298,47.6854 67.2964,45.6854 67.5,43.5 Z"/></g>
<g><path style="opacity:1" fill="#42ae39" d="M 62.5,50.5 C 63.8946,51.8146 64.8946,51.4812 65.5,49.5C 66.8149,48.5244 68.1482,47.5244 69.5,46.5C 70.4998,76.826 70.8332,107.159 70.5,137.5C 69.8333,108.331 69.1667,78.9972 68.5,49.5C 66.8333,50.8333 65.1667,52.1667 63.5,53.5C 62.0241,51.4287 60.0241,50.4287 57.5,50.5C 57.5,78.1667 57.5,105.833 57.5,133.5C 56.502,104.671 56.1686,75.6715 56.5,46.5C 57.552,46.3505 58.552,46.5172 59.5,47C 60.1634,48.5185 61.1634,49.6851 62.5,50.5 Z"/></g>
<g><path style="opacity:1" fill="#a6ed9e" d="M 62.5,50.5 C 62.5,50.1667 62.5,49.8333 62.5,49.5C 63.5,49.5 64.5,49.5 65.5,49.5C 64.8946,51.4812 63.8946,51.8146 62.5,50.5 Z"/></g>
<g><path style="opacity:1" fill="#dafed3" d="M 68.5,40.5 C 68.7352,39.9033 69.2352,39.5699 70,39.5C 71.4768,40.444 72.4768,41.7774 73,43.5C 73.1676,74.6694 73.6676,105.669 74.5,136.5C 74.1849,139.211 74.8516,141.544 76.5,143.5C 76.5,144.167 76.5,144.833 76.5,145.5C 74.1725,144.264 73.0058,142.264 73,139.5C 72.8324,107.997 72.3324,76.664 71.5,45.5C 71.5,45.1667 71.5,44.8333 71.5,44.5C 71.2624,42.5956 70.2624,41.2623 68.5,40.5 Z"/></g>
<g><path style="opacity:1" fill="#d7f7d1" d="M 20.5,43.5 C 17.7989,55.3194 16.7989,67.3194 17.5,79.5C 15.5367,72.5762 14.8701,65.2428 15.5,57.5C 16.6528,52.5522 18.3195,47.8855 20.5,43.5 Z"/></g>
<g><path style="opacity:1" fill="#d0f9cc" d="M 111.5,38.5 C 112.728,39.3065 113.728,40.3065 114.5,41.5C 116.299,46.7333 117.799,52.0667 119,57.5C 119.826,68.6745 119.659,79.6745 118.5,90.5C 119.638,74.8396 118.138,59.5063 114,44.5C 113.148,43.4293 112.315,42.4293 111.5,41.5C 111.5,40.5 111.5,39.5 111.5,38.5 Z"/></g>
<g><path style="opacity:1" fill="#bef0b8" d="M 38.5,43.5 C 36.8745,49.6453 35.8745,55.9787 35.5,62.5C 34.5128,67.3054 34.1795,72.3054 34.5,77.5C 33.1419,68.2549 33.4752,58.9215 35.5,49.5C 36.5,47.5 37.5,45.5 38.5,43.5 Z"/></g>
<g><path style="opacity:1" fill="#4ea944" d="M 35.5,49.5 C 33.4752,58.9215 33.1419,68.2549 34.5,77.5C 34.8993,81.1165 35.8993,84.4498 37.5,87.5C 37.8782,89.921 38.5448,92.2543 39.5,94.5C 39.5,95.8333 39.5,97.1667 39.5,98.5C 37.901,98.7678 36.5676,98.4345 35.5,97.5C 36.675,97.719 37.675,97.3857 38.5,96.5C 36.52,90.4343 34.3533,84.4343 32,78.5C 31.264,70.4647 31.4307,62.4647 32.5,54.5C 32.5,53.8333 32.5,53.1667 32.5,52.5C 33.1001,51.0998 34.1001,50.0998 35.5,49.5 Z"/></g>
<g><path style="opacity:1" fill="#eefeea" d="M 74.5,136.5 C 73.6676,105.669 73.1676,74.6694 73,43.5C 72.4768,41.7774 71.4768,40.444 70,39.5C 69.2352,39.5699 68.7352,39.9033 68.5,40.5C 67.391,40.5569 66.391,40.8902 65.5,41.5C 64.2617,41.19 64.2617,40.69 65.5,40C 68.5857,37.9366 71.419,38.1033 74,40.5C 74.5,72.4983 74.6666,104.498 74.5,136.5 Z"/></g>
<g><path style="opacity:1" fill="#f2feef" d="M 111.5,41.5 C 112.315,42.4293 113.148,43.4293 114,44.5C 118.138,59.5063 119.638,74.8396 118.5,90.5C 118.5,91.1667 118.5,91.8333 118.5,92.5C 117.883,92.6107 117.383,92.944 117,93.5C 116.503,96.146 116.336,98.8127 116.5,101.5C 114.624,106.876 112.624,112.209 110.5,117.5C 112.799,107.291 114.965,96.9572 117,86.5C 117.667,78.5 117.667,70.5 117,62.5C 113.672,59.7701 112.839,56.4368 114.5,52.5C 112.874,49.0496 111.874,45.383 111.5,41.5 Z"/></g>
<g><path style="opacity:1" fill="#eefeed" d="M 136.5,47.5 C 138.059,50.8683 138.892,54.5349 139,58.5C 139.204,74.3707 139.371,90.2041 139.5,106C 136.719,110.405 135.219,115.238 135,120.5C 134.667,120.167 134.333,119.833 134,119.5C 133.125,122.401 131.958,125.068 130.5,127.5C 130.993,125.194 131.326,122.861 131.5,120.5C 133.807,116.177 135.307,111.51 136,106.5C 137.252,90.5252 137.752,74.5252 137.5,58.5C 137.448,54.8019 137.114,51.1352 136.5,47.5 Z"/></g>
<g><path style="opacity:1" fill="#f1fdef" d="M 15.5,57.5 C 14.8701,65.2428 15.5367,72.5762 17.5,79.5C 17.5,80.5 17.5,81.5 17.5,82.5C 16.9001,88.149 18.2334,93.149 21.5,97.5C 22.1667,97.5 22.5,97.8333 22.5,98.5C 23.5252,101.389 24.8586,103.389 26.5,104.5C 27.3019,103.048 27.8019,101.382 28,99.5C 29.2917,98.2089 30.4583,98.2089 31.5,99.5C 30.1557,102.966 28.3223,106.299 26,109.5C 22.37,106.3 20.0366,102.3 19,97.5C 17.6491,97.5544 16.4824,97.0544 15.5,96C 15.9504,94.7147 16.6171,93.548 17.5,92.5C 14.402,80.9345 13.7353,69.2679 15.5,57.5 Z"/></g>
<g><path style="opacity:1" fill="#3db331" d="M 32.5,54.5 C 31.4307,62.4647 31.264,70.4647 32,78.5C 34.3533,84.4343 36.52,90.4343 38.5,96.5C 37.675,97.3857 36.675,97.719 35.5,97.5C 33.1495,96.1389 30.8162,94.8056 28.5,93.5C 26.7973,92.3398 26.1307,93.0065 26.5,95.5C 25.2921,96.2341 23.9587,96.5674 22.5,96.5C 22.2444,93.4021 21.5778,90.4021 20.5,87.5C 22.178,88.7471 23.5113,90.4138 24.5,92.5C 26.4593,89.3937 28.626,89.0604 31,91.5C 32.1505,89.2462 32.4838,86.9129 32,84.5C 30.9348,88.3776 30.1015,88.3776 29.5,84.5C 30.3903,81.3913 30.3903,78.2246 29.5,75C 29.6479,67.7582 30.6479,60.9249 32.5,54.5 Z"/></g>
<g><path style="opacity:1" fill="#5aab52" d="M 127.5,31.5 C 129.769,35.0383 131.769,38.705 133.5,42.5C 134.818,47.7734 135.818,53.1067 136.5,58.5C 136.666,68.8387 136.5,79.172 136,89.5C 135.9,95.747 135.067,101.747 133.5,107.5C 135.122,91.203 135.622,74.8697 135,58.5C 133.584,53.5847 132.584,48.5847 132,43.5C 129.636,39.7814 128.136,35.7814 127.5,31.5 Z"/></g>
<g><path style="opacity:1" fill="#f3fef3" d="M 45.5,35.5 C 44.8303,38.6729 43.6636,41.6729 42,44.5C 41.3333,43.1667 40.6667,43.1667 40,44.5C 39.4375,46.8661 39.6042,49.1994 40.5,51.5C 36.7301,59.3761 35.5635,67.7095 37,76.5C 38.298,77.9456 38.4646,79.2789 37.5,80.5C 36.7321,79.7375 36.2321,78.7375 36,77.5C 35.5007,72.5111 35.3341,67.5111 35.5,62.5C 35.8745,55.9787 36.8745,49.6453 38.5,43.5C 41.5225,41.4002 43.8559,38.7335 45.5,35.5 Z"/></g>
<g><path style="opacity:1" fill="#4ca942" d="M 19.5,58.5 C 19.3417,68.1907 19.675,77.8573 20.5,87.5C 21.5778,90.4021 22.2444,93.4021 22.5,96.5C 23.9587,96.5674 25.2921,96.2341 26.5,95.5C 26.5,95.8333 26.5,96.1667 26.5,96.5C 26.5,96.8333 26.5,97.1667 26.5,97.5C 25.2921,98.2341 23.9587,98.5674 22.5,98.5C 22.5,97.8333 22.1667,97.5 21.5,97.5C 20.2917,92.5417 19.2917,87.5417 18.5,82.5C 18.1743,74.3159 18.5076,66.3159 19.5,58.5 Z"/></g>
<g><path style="opacity:1" fill="#3fb135" d="M 121.5,58.5 C 122.66,70.9933 122.827,83.6599 122,96.5C 121.058,99.3738 119.891,102.04 118.5,104.5C 120.983,89.282 121.983,73.9487 121.5,58.5 Z"/></g>
<g><path style="opacity:1" fill="#dcfdd8" d="M 35.5,62.5 C 35.3341,67.5111 35.5007,72.5111 36,77.5C 36.2321,78.7375 36.7321,79.7375 37.5,80.5C 37.5,82.8333 37.5,85.1667 37.5,87.5C 35.8993,84.4498 34.8993,81.1165 34.5,77.5C 34.1795,72.3054 34.5128,67.3054 35.5,62.5 Z"/></g>
<g><path style="opacity:1" fill="#bff4ba" d="M 56.5,42.5 C 56.5,42.8333 56.5,43.1667 56.5,43.5C 55.5019,73.3287 55.1686,103.329 55.5,133.5C 55.1667,133.5 54.8333,133.5 54.5,133.5C 53.841,102.815 54.5077,72.4816 56.5,42.5 Z"/></g>
<g><path style="opacity:1" fill="#53a54c" d="M 56.5,43.5 C 59.5,44.5 61.5,46.5 62.5,49.5C 62.5,49.8333 62.5,50.1667 62.5,50.5C 61.1634,49.6851 60.1634,48.5185 59.5,47C 58.552,46.5172 57.552,46.3505 56.5,46.5C 56.1686,75.6715 56.502,104.671 57.5,133.5C 56.6728,144.991 60.3394,154.658 68.5,162.5C 64.8739,160.541 61.8739,157.874 59.5,154.5C 57.241,147.692 55.9077,140.692 55.5,133.5C 55.1686,103.329 55.5019,73.3287 56.5,43.5 Z"/></g>
<g><path style="opacity:1" fill="#c6f1c1" d="M 17.5,82.5 C 17.8333,82.5 18.1667,82.5 18.5,82.5C 19.2917,87.5417 20.2917,92.5417 21.5,97.5C 18.2334,93.149 16.9001,88.149 17.5,82.5 Z"/></g>
<g><path style="opacity:1" fill="#d9fdd8" d="M 37.5,87.5 C 38.4584,87.9528 39.2917,88.6195 40,89.5C 41.3861,92.733 42.5528,96.0664 43.5,99.5C 43.1667,99.5 42.8333,99.5 42.5,99.5C 41.7368,97.6316 40.7368,95.9649 39.5,94.5C 38.5448,92.2543 37.8782,89.921 37.5,87.5 Z"/></g>
<g><path style="opacity:1" fill="#aef8a6" d="M 28.5,93.5 C 28.5,93.8333 28.5,94.1667 28.5,94.5C 28.1667,95.5 27.5,96.1667 26.5,96.5C 26.5,96.1667 26.5,95.8333 26.5,95.5C 26.1307,93.0065 26.7973,92.3398 28.5,93.5 Z"/></g>
<g><path style="opacity:1" fill="#ddfed9" d="M 28.5,94.5 C 31.205,96.5116 33.8717,98.5116 36.5,100.5C 34.7839,100.371 33.1172,100.038 31.5,99.5C 30.4583,98.2089 29.2917,98.2089 28,99.5C 27.8019,101.382 27.3019,103.048 26.5,104.5C 26.5,102.167 26.5,99.8333 26.5,97.5C 26.5,97.1667 26.5,96.8333 26.5,96.5C 27.5,96.1667 28.1667,95.5 28.5,94.5 Z"/></g>
<g><path style="opacity:1" fill="#d3fdd1" d="M 118.5,92.5 C 118.296,95.5176 117.963,98.5176 117.5,101.5C 117.167,101.5 116.833,101.5 116.5,101.5C 116.336,98.8127 116.503,96.146 117,93.5C 117.383,92.944 117.883,92.6107 118.5,92.5 Z"/></g>
<g><path style="opacity:1" fill="#bdf0b8" d="M 136.5,58.5 C 136.833,58.5 137.167,58.5 137.5,58.5C 137.752,74.5252 137.252,90.5252 136,106.5C 135.307,111.51 133.807,116.177 131.5,120.5C 130.833,120.833 130.167,121.167 129.5,121.5C 131.298,117.008 132.632,112.341 133.5,107.5C 135.067,101.747 135.9,95.747 136,89.5C 136.5,79.172 136.666,68.8387 136.5,58.5 Z"/></g>
<g><path style="opacity:1" fill="#62aa5b" d="M 28.5,94.5 C 28.5,94.1667 28.5,93.8333 28.5,93.5C 30.8162,94.8056 33.1495,96.1389 35.5,97.5C 36.5676,98.4345 37.901,98.7678 39.5,98.5C 39.5,97.1667 39.5,95.8333 39.5,94.5C 40.7368,95.9649 41.7368,97.6316 42.5,99.5C 42.1583,100.338 41.4916,100.672 40.5,100.5C 39.1667,100.5 37.8333,100.5 36.5,100.5C 33.8717,98.5116 31.205,96.5116 28.5,94.5 Z"/></g>
<g><path style="opacity:1" fill="#6b9c64" d="M 26.5,97.5 C 26.5,99.8333 26.5,102.167 26.5,104.5C 24.8586,103.389 23.5252,101.389 22.5,98.5C 23.9587,98.5674 25.2921,98.2341 26.5,97.5 Z"/></g>
<g><path style="opacity:1" fill="#99b893" d="M 42.5,99.5 C 42.8333,99.5 43.1667,99.5 43.5,99.5C 43.6107,100.117 43.944,100.617 44.5,101C 42.9343,101.765 41.6009,101.598 40.5,100.5C 41.4916,100.672 42.1583,100.338 42.5,99.5 Z"/></g>
<g><path style="opacity:1" fill="#78bb70" d="M 116.5,101.5 C 116.833,101.5 117.167,101.5 117.5,101.5C 117.59,104.152 116.924,106.485 115.5,108.5C 115.674,106.139 116.007,103.806 116.5,101.5 Z"/></g>
<g><path style="opacity:1" fill="#59ae4f" d="M 114.5,41.5 C 116.329,44.2251 117.995,47.2251 119.5,50.5C 120.381,53.1303 121.048,55.797 121.5,58.5C 121.983,73.9487 120.983,89.282 118.5,104.5C 118.5,105.167 118.5,105.833 118.5,106.5C 115.143,117.226 110.643,127.559 105,137.5C 101.5,140.333 98.3333,143.5 95.5,147C 94.552,147.483 93.552,147.649 92.5,147.5C 96.0574,144.064 99.3908,140.397 102.5,136.5C 108.418,127.993 112.751,118.66 115.5,108.5C 116.924,106.485 117.59,104.152 117.5,101.5C 117.963,98.5176 118.296,95.5176 118.5,92.5C 118.5,91.8333 118.5,91.1667 118.5,90.5C 119.659,79.6745 119.826,68.6745 119,57.5C 117.799,52.0667 116.299,46.7333 114.5,41.5 Z"/></g>
<g><path style="opacity:1" fill="#48b041" d="M 133.5,107.5 C 132.632,112.341 131.298,117.008 129.5,121.5C 128.508,123.456 127.508,125.456 126.5,127.5C 125.737,129.368 124.737,131.035 123.5,132.5C 124.723,126.888 125.889,121.221 127,115.5C 128.154,114.257 129.488,113.257 131,112.5C 131.49,111.207 131.657,109.873 131.5,108.5C 132.167,108.167 132.833,107.833 133.5,107.5 Z"/></g>
<g><path style="opacity:1" fill="#bbf3b9" d="M 129.5,121.5 C 129.975,124.313 128.975,126.313 126.5,127.5C 127.508,125.456 128.508,123.456 129.5,121.5 Z"/></g>
<g><path style="opacity:1" fill="#d6fbd0" d="M 116.5,101.5 C 116.007,103.806 115.674,106.139 115.5,108.5C 112.751,118.66 108.418,127.993 102.5,136.5C 105.535,130.417 108.201,124.084 110.5,117.5C 112.624,112.209 114.624,106.876 116.5,101.5 Z"/></g>
<g><path style="opacity:1" fill="#d4f9cf" d="M 54.5,133.5 C 54.8333,133.5 55.1667,133.5 55.5,133.5C 55.9077,140.692 57.241,147.692 59.5,154.5C 58.1667,152.5 56.8333,150.5 55.5,148.5C 54.746,143.537 54.4126,138.537 54.5,133.5 Z"/></g>
<g><path style="opacity:1" fill="#56a94e" d="M 123.5,133.5 C 120.818,139.537 117.151,144.871 112.5,149.5C 115.904,145.005 118.571,140.005 120.5,134.5C 121.325,133.614 122.325,133.281 123.5,133.5 Z"/></g>
<g><path style="opacity:1" fill="#d9fcd4" d="M 102.5,136.5 C 99.3908,140.397 96.0574,144.064 92.5,147.5C 90.847,147.66 89.5137,148.326 88.5,149.5C 85.4816,149.665 82.4816,149.498 79.5,149C 77.5743,148.578 76.5743,147.411 76.5,145.5C 78.1958,145.685 79.5291,146.519 80.5,148C 82.8333,148.667 85.1667,148.667 87.5,148C 90.4961,146.087 93.1627,143.921 95.5,141.5C 97.5496,139.453 99.883,137.786 102.5,136.5 Z"/></g>
<g><path style="opacity:1" fill="#d7fad4" d="M 131.5,120.5 C 131.326,122.861 130.993,125.194 130.5,127.5C 125.514,134.792 120.514,142.125 115.5,149.5C 114.167,150.5 112.833,151.5 111.5,152.5C 111.557,151.391 111.89,150.391 112.5,149.5C 117.151,144.871 120.818,139.537 123.5,133.5C 123.5,133.167 123.5,132.833 123.5,132.5C 124.737,131.035 125.737,129.368 126.5,127.5C 128.975,126.313 129.975,124.313 129.5,121.5C 130.167,121.167 130.833,120.833 131.5,120.5 Z"/></g>
<g><path style="opacity:1" fill="#3fb034" d="M 118.5,106.5 C 118.359,110.093 117.692,113.593 116.5,117C 116.645,118.226 116.978,119.393 117.5,120.5C 116.329,122.169 114.996,123.669 113.5,125C 108.6,136.892 100.6,145.892 89.5,152C 85.2191,152.798 81.2191,152.298 77.5,150.5C 81.3714,150.815 85.0381,150.482 88.5,149.5C 89.5137,148.326 90.847,147.66 92.5,147.5C 93.552,147.649 94.552,147.483 95.5,147C 98.3333,143.5 101.5,140.333 105,137.5C 110.643,127.559 115.143,117.226 118.5,106.5 Z"/></g>
<g><path style="opacity:1" fill="#f1feef" d="M 95.5,141.5 C 93.1627,143.921 90.4961,146.087 87.5,148C 85.1667,148.667 82.8333,148.667 80.5,148C 79.5291,146.519 78.1958,145.685 76.5,145.5C 76.5,144.833 76.5,144.167 76.5,143.5C 80.1534,145.913 84.1534,146.746 88.5,146C 89.9389,145.009 90.9389,143.676 91.5,142C 92.7932,141.51 94.1266,141.343 95.5,141.5 Z"/></g>
<g><path style="opacity:1" fill="#65b15c" d="M 71.5,45.5 C 72.3324,76.664 72.8324,107.997 73,139.5C 73.0058,142.264 74.1725,144.264 76.5,145.5C 76.5743,147.411 77.5743,148.578 79.5,149C 82.4816,149.498 85.4816,149.665 88.5,149.5C 85.0381,150.482 81.3714,150.815 77.5,150.5C 76.5943,149.035 75.261,148.035 73.5,147.5C 72.1921,144.294 71.5254,140.96 71.5,137.5C 71.5,106.833 71.5,76.1667 71.5,45.5 Z"/></g>
<g><path style="opacity:1" fill="#58aa50" d="M 112.5,149.5 C 111.89,150.391 111.557,151.391 111.5,152.5C 110.5,152.833 109.833,153.5 109.5,154.5C 107.251,155.08 105.585,156.413 104.5,158.5C 100.348,161.573 95.6814,163.573 90.5,164.5C 92.7205,163.021 95.0538,161.688 97.5,160.5C 102.698,157.102 107.698,153.435 112.5,149.5 Z"/></g>
<g><path style="opacity:1" fill="#c6f2c3" d="M 109.5,154.5 C 108.415,156.587 106.749,157.92 104.5,158.5C 105.585,156.413 107.251,155.08 109.5,154.5 Z"/></g>
<g><path style="opacity:1" fill="#eefeeb" d="M 115.5,149.5 C 114.081,152.1 112.415,154.6 110.5,157C 106.918,158.62 103.918,160.953 101.5,164C 100.552,164.483 99.552,164.649 98.5,164.5C 100.806,162.861 102.806,160.861 104.5,158.5C 106.749,157.92 108.415,156.587 109.5,154.5C 109.833,153.5 110.5,152.833 111.5,152.5C 112.833,151.5 114.167,150.5 115.5,149.5 Z"/></g>
<g><path style="opacity:1" fill="#ddfcd8" d="M 59.5,154.5 C 61.8739,157.874 64.8739,160.541 68.5,162.5C 68.5,162.833 68.5,163.167 68.5,163.5C 62.6177,163.391 59.6177,160.391 59.5,154.5 Z"/></g>
<g><path style="opacity:1" fill="#43ae39" d="M 97.5,160.5 C 95.0538,161.688 92.7205,163.021 90.5,164.5C 84.642,164.822 78.9753,164.489 73.5,163.5C 81.7453,164.086 89.7453,163.086 97.5,160.5 Z"/></g>
<g><path style="opacity:1" fill="#5eac56" d="M 68.5,163.5 C 68.5,163.167 68.5,162.833 68.5,162.5C 70.2915,162.366 71.9582,162.699 73.5,163.5C 78.9753,164.489 84.642,164.822 90.5,164.5C 88.4888,165.893 86.1554,166.56 83.5,166.5C 79.1169,166.017 74.7836,165.35 70.5,164.5C 69.8333,164.167 69.1667,163.833 68.5,163.5 Z"/></g>
<g><path style="opacity:1" fill="#ddfcd9" d="M 104.5,158.5 C 102.806,160.861 100.806,162.861 98.5,164.5C 92.5455,166.04 86.5455,167.374 80.5,168.5C 76.5449,168.504 73.2115,167.17 70.5,164.5C 74.7836,165.35 79.1169,166.017 83.5,166.5C 86.1554,166.56 88.4888,165.893 90.5,164.5C 95.6814,163.573 100.348,161.573 104.5,158.5 Z"/></g>
</svg>
